<?xml version="1.0" encoding="utf-8"?>
<!-- Generator: Adobe Illustrator 21.0.0, SVG Export Plug-In . SVG Version: 6.00 Build 0)  -->
<svg version="1.1" id="OBJECTS" xmlns="http://www.w3.org/2000/svg" xmlns:xlink="http://www.w3.org/1999/xlink" x="0px" y="0px"
	 viewBox="0 0 116 140" style="enable-background:new 0 0 116 140;" xml:space="preserve">
<style type="text/css">
	.st0{fill:#1B9EC1;}
	.st1{fill:#E1395D;}
	.st2{fill:#0084B4;}
	.st3{fill:#097693;}
	.st4{fill:#F1A20D;}
</style>
<g>
	<g>
		<path class="st0" d="M87.8,126.1c-2.3,2.2-4.5,4.5-6.8,6.7h13.5C92.3,130.6,90,128.3,87.8,126.1z"/>
		<path class="st0" d="M107.7,106.7v-0.5c-0.1,0.1-0.2,0.2-0.2,0.2C107.6,106.6,107.6,106.6,107.7,106.7z"/>
		<path class="st0" d="M52.2,126.1c-2.2,2.2-4.5,4.5-6.7,6.7h13.4C56.6,130.6,54.4,128.3,52.2,126.1z"/>
		<path class="st0" d="M98.5,97.6c2.4,2.4,4.8,4.8,7.2,7.2c0.7-0.7,1.3-1.3,2-2V92.6c-0.7-0.7-1.4-1.4-2.1-2.1
			C103.3,92.9,100.9,95.2,98.5,97.6z"/>
		<path class="st0" d="M34.3,126.1c-2.3,2.2-4.5,4.5-6.8,6.7h13.5C38.8,130.6,36.6,128.3,34.3,126.1z"/>
		<path class="st0" d="M98.8,132.8h8.9v-4.6c-0.7-0.7-1.4-1.4-2.1-2.1C103.3,128.3,101.1,130.6,98.8,132.8z"/>
		<path class="st0" d="M107.7,124.5v-0.6c-0.1,0.1-0.2,0.2-0.3,0.3C107.5,124.3,107.6,124.4,107.7,124.5z"/>
		<path class="st0" d="M98.5,115.4c2.4,2.4,4.8,4.8,7.2,7.2c0.6-0.6,1.3-1.3,1.9-1.9v-10.2c-0.7-0.7-1.4-1.4-2.1-2.1
			C103.3,110.7,100.9,113,98.5,115.4z"/>
		<path class="st0" d="M70,126.1c-2.2,2.2-4.5,4.5-6.7,6.7h13.5C74.5,130.6,72.2,128.3,70,126.1z"/>
		<path class="st0" d="M61,60.1c2.4-2.4,4.7-4.7,7.1-7.1c-1.5-1.5-3.1-3.1-4.6-4.6h-5C57,50,55.5,51.5,54,53
			C56.3,55.4,58.7,57.8,61,60.1z"/>
		<path class="st1" d="M19.2,48.4h-5.5c0.9,0.9,1.8,1.8,2.7,2.7C17.4,50.3,18.3,49.3,19.2,48.4z"/>
		<path class="st0" d="M43.2,60.1c2.4-2.4,4.7-4.7,7.1-7.1c-1.5-1.5-3.1-3.1-4.6-4.6h-5c-1.5,1.5-3.1,3.1-4.6,4.6
			C38.5,55.4,40.9,57.7,43.2,60.1z"/>
		<path class="st0" d="M25.4,60.1c2.4-2.4,4.7-4.7,7.1-7.1c-1.5-1.5-3-3-4.6-4.6h-5c-1.5,1.5-3.1,3.1-4.6,4.6
			C20.7,55.4,23,57.7,25.4,60.1z"/>
		<path class="st1" d="M37.1,48.4h-5.5c0.9,0.9,1.8,1.8,2.8,2.8C35.2,50.3,36.2,49.3,37.1,48.4z"/>
		<path class="st1" d="M54.9,48.4h-5.6c0.9,0.9,1.9,1.9,2.8,2.8C53,50.3,54,49.4,54.9,48.4z"/>
		<path class="st1" d="M72.7,48.4h-5.6c0.9,0.9,1.9,1.9,2.8,2.8C70.9,50.3,71.8,49.4,72.7,48.4z"/>
		<path class="st1" d="M90.6,48.4H85c0.9,0.9,1.9,1.9,2.8,2.8C88.7,50.3,89.7,49.4,90.6,48.4z"/>
		<path class="st0" d="M96.6,60.1c2.4-2.4,4.7-4.7,7.1-7.1c-1.5-1.5-3.1-3.1-4.6-4.6h-5c-1.5,1.5-3.1,3.1-4.6,4.6
			C91.9,55.4,94.3,57.7,96.6,60.1z"/>
		<path class="st0" d="M78.9,60.1c2.4-2.4,4.7-4.7,7.1-7.1c-1.5-1.5-3.1-3.1-4.6-4.6h-5c-1.5,1.5-3,3-4.6,4.6
			C74.1,55.4,76.5,57.8,78.9,60.1z"/>
		<path class="st0" d="M23.6,79.7c-2.4-2.4-4.7-4.7-7.1-7.1c-2.2,2.2-4.3,4.3-6.5,6.5v1.2c2.2,2.2,4.3,4.3,6.5,6.5
			C18.9,84.4,21.2,82.1,23.6,79.7z"/>
		<path class="st0" d="M23.6,115.4c-2.4-2.4-4.8-4.8-7.1-7.1c-2.2,2.2-4.3,4.3-6.5,6.5v1.3c2.2,2.2,4.3,4.3,6.5,6.5
			C18.9,120.1,21.3,117.7,23.6,115.4z"/>
		<path class="st0" d="M10,101.8v9.3c1.6-1.6,3.1-3.1,4.7-4.7C13.1,104.9,11.6,103.3,10,101.8z"/>
		<path class="st0" d="M23.6,97.5c-2.4-2.4-4.7-4.7-7.1-7.1c-2.2,2.2-4.3,4.3-6.5,6.5v1.2c2.2,2.2,4.3,4.3,6.5,6.5
			C18.9,102.3,21.3,99.9,23.6,97.5z"/>
		<path class="st0" d="M10,119.6v9.4c1.6-1.6,3.1-3.1,4.7-4.7C13.1,122.7,11.6,121.1,10,119.6z"/>
		<path class="st0" d="M10,84v9.3c1.6-1.6,3.1-3.1,4.7-4.7C13.1,87.1,11.6,85.5,10,84z"/>
		<path class="st0" d="M10,66.1v9.4c1.6-1.6,3.1-3.1,4.7-4.7C13.1,69.2,11.6,67.7,10,66.1z"/>
		<path class="st0" d="M10.1,48.4H10v9.2c1.5-1.5,3.1-3.1,4.6-4.6C13.2,51.5,11.6,49.9,10.1,48.4z"/>
		<path class="st0" d="M23.6,61.9c-2.4-2.4-4.7-4.7-7.1-7.1c-2.2,2.2-4.3,4.3-6.5,6.5v1.2c2.2,2.2,4.3,4.3,6.5,6.5
			C18.9,66.6,21.2,64.3,23.6,61.9z"/>
		<path class="st0" d="M10,132.5v0.3h13.2c-2.3-2.3-4.5-4.5-6.8-6.8C14.3,128.2,12.2,130.4,10,132.5z"/>
		<path class="st0" d="M36.1,124.2c2.4,2.4,4.7,4.7,7.1,7.1c2.4-2.4,4.7-4.7,7.1-7.1c-2.4-2.4-4.7-4.7-7.1-7.1
			C40.9,119.5,38.5,121.9,36.1,124.2z"/>
		<path class="st0" d="M32.5,88.6c-2.4-2.4-4.7-4.7-7.1-7.1c-2.4,2.4-4.7,4.7-7.1,7.1c2.4,2.4,4.7,4.7,7.1,7.1
			C27.8,93.4,30.2,91,32.5,88.6z"/>
		<path class="st0" d="M32.5,70.8c-2.4-2.4-4.7-4.7-7.1-7.1c-2.4,2.4-4.7,4.7-7.1,7.1c2.4,2.4,4.7,4.7,7.1,7.1
			C27.8,75.6,30.1,73.2,32.5,70.8z"/>
		<path class="st0" d="M32.5,106.5c-2.4-2.4-4.8-4.8-7.1-7.1c-2.4,2.4-4.7,4.7-7.1,7.1c2.4,2.4,4.8,4.8,7.1,7.1
			C27.8,111.2,30.2,108.8,32.5,106.5z"/>
		<path class="st0" d="M34.3,108.2c-2.4,2.4-4.7,4.7-7.1,7.1c2.4,2.4,4.7,4.7,7.1,7.1c2.4-2.4,4.7-4.7,7.1-7.1
			C39,113,36.7,110.6,34.3,108.2z"/>
		<path class="st0" d="M18.3,124.2c2.4,2.4,4.7,4.7,7.1,7.1c2.4-2.4,4.7-4.7,7.1-7.1c-2.4-2.4-4.7-4.7-7.1-7.1
			C23,119.5,20.7,121.9,18.3,124.2z"/>
		<path class="st0" d="M41.4,61.9c-2.4-2.4-4.7-4.7-7.1-7.1c-2.4,2.4-4.7,4.7-7.1,7.1c2.4,2.4,4.7,4.7,7.1,7.1
			C36.7,66.6,39.1,64.3,41.4,61.9z"/>
		<path class="st0" d="M61,77.9c0.4-0.4,0.9-0.9,1.3-1.3c1.9-1.9,3.8-3.8,5.7-5.7c-2.4-2.4-4.8-4.8-7.1-7.1
			c-2.4,2.4-4.7,4.7-7.1,7.1C56.3,73.2,58.7,75.6,61,77.9z"/>
		<path class="st0" d="M43.2,77.9c2.4-2.4,4.7-4.7,7.1-7.1c-2.4-2.4-4.7-4.7-7.1-7.1c-2.4,2.4-4.7,4.7-7.1,7.1
			C38.5,73.2,40.9,75.6,43.2,77.9z"/>
		<path class="st0" d="M77,62c-2.4-2.4-4.8-4.8-7.1-7.1c-2.4,2.4-4.7,4.7-7.1,7.1c2.4,2.4,4.8,4.8,7.1,7.1
			C72.3,66.7,74.7,64.3,77,62z"/>
		<path class="st0" d="M59.2,61.9c-2.4-2.4-4.7-4.7-7.1-7.1c-2.4,2.4-4.7,4.7-7.1,7.1c2.4,2.4,4.7,4.7,7.1,7.1
			C54.5,66.7,56.9,64.3,59.2,61.9z"/>
		<path class="st0" d="M89.6,70.8c2.4,2.4,4.7,4.7,7.1,7.1c2.4-2.4,4.7-4.7,7.1-7.1c-2.4-2.4-4.7-4.7-7.1-7.1
			C94.3,66.1,91.9,68.5,89.6,70.8z"/>
		<path class="st0" d="M89.6,88.7c2.5,2.4,4.9,4.9,7.4,7.3c2.4-2.4,4.7-4.7,7.1-7.1c-2.4-2.4-4.9-4.9-7.3-7.3
			C94.3,83.9,92,86.3,89.6,88.7z"/>
		<path class="st0" d="M89.6,106.5c2.4,2.4,4.8,4.8,7.2,7.2c2.3-2.4,4.7-4.7,7-7.1c-2.4-2.4-4.8-4.8-7.2-7.2
			C94.3,101.8,92,104.1,89.6,106.5z"/>
		<path class="st0" d="M89.6,124.3c2.4,2.4,4.8,4.8,7.2,7.2c2.4-2.4,4.7-4.7,7.1-7.1c-2.4-2.4-4.8-4.8-7.2-7.2
			C94.3,119.5,92,121.9,89.6,124.3z"/>
		<path class="st1" d="M102.7,48.4c0.9,0.9,1.8,1.9,2.8,2.8c0.7-0.7,1.5-1.5,2.2-2.2v-0.6H102.7z"/>
		<path class="st0" d="M52.2,108.3c-2.4,2.4-4.7,4.7-7.1,7.1c2.4,2.4,4.7,4.7,7.1,7.1c2.4-2.4,4.7-4.7,7.1-7.1
			C56.9,113,54.5,110.6,52.2,108.3z"/>
		<path class="st0" d="M78.8,77.9c2.4-2.4,4.7-4.7,7.1-7.1c-2.4-2.4-4.7-4.7-7.1-7.1c-2.4,2.4-4.7,4.7-7.1,7.1
			C74.1,73.2,76.5,75.6,78.8,77.9z"/>
		<path class="st0" d="M54,124.3c2.5,2.5,4.9,4.9,7.4,7.4c2.4-2.4,4.7-4.7,7.1-7.1c-2.5-2.5-4.9-4.9-7.4-7.4
			C58.7,119.5,56.3,121.9,54,124.3z"/>
		<path class="st0" d="M87.8,108.3c-2.4,2.4-4.7,4.7-7.1,7.1c2.4,2.4,4.8,4.8,7.2,7.2c2.4-2.4,4.7-4.7,7.1-7.1
			C92.6,113.1,90.2,110.7,87.8,108.3z"/>
		<path class="st0" d="M70,108.3c-2.4,2.4-4.7,4.7-7.1,7.1c2.5,2.5,4.9,4.9,7.4,7.4c2.4-2.4,4.7-4.7,7.1-7.1
			C74.9,113.2,72.4,110.7,70,108.3z"/>
		<path class="st0" d="M71.8,124.3c2.4,2.4,4.9,4.8,7.3,7.3c2.4-2.4,4.7-4.7,7.1-7.1c-2.4-2.4-4.8-4.8-7.2-7.2
			C76.5,119.5,74.1,121.9,71.8,124.3z"/>
		<path class="st0" d="M98.5,61.9c2.4,2.4,4.7,4.7,7.1,7c0.7-0.7,1.4-1.4,2.1-2.1V57c-0.7-0.7-1.4-1.4-2.1-2.1
			C103.2,57.2,100.9,59.6,98.5,61.9z"/>
		<path class="st0" d="M78.8,95.7c0.5-0.5,0.9-0.9,1.4-1.4c1.9-1.9,3.8-3.8,5.7-5.7c-2.4-2.4-4.7-4.7-7.1-7.1
			c-1.1,1.1-2.3,2.3-3.4,3.4c-1.2,1.2-2.4,2.4-3.7,3.7C74.1,91,76.5,93.4,78.8,95.7z"/>
		<path class="st0" d="M94.8,61.9c-2.4-2.4-4.7-4.7-7.1-7.1c-2.4,2.4-4.7,4.7-7.1,7.1c2.4,2.4,4.7,4.7,7.1,7.1
			C90.1,66.6,92.5,64.3,94.8,61.9z"/>
		<path class="st0" d="M66.5,76.1c-1.2,1.2-2.4,2.4-3.6,3.6c2.4,2.4,4.7,4.7,7.1,7.1c0.5-0.5,1-1,1.4-1.4c1.9-1.9,3.8-3.8,5.7-5.6
			c-2.4-2.4-4.7-4.7-7.1-7.1C68.8,73.8,67.6,75,66.5,76.1z"/>
		<path class="st0" d="M53.9,88.6c2.4,2.4,4.7,4.7,7.1,7.1c2.4-2.4,4.7-4.7,7.1-7.1c-2.4-2.4-4.7-4.7-7.1-7.1
			C58.7,83.9,56.3,86.3,53.9,88.6z"/>
		<path class="st0" d="M98.5,79.7c2.4,2.4,4.9,4.9,7.3,7.3c0.6-0.6,1.2-1.2,1.9-1.9V74.8c-0.7-0.7-1.4-1.4-2.1-2.1
			C103.2,75,100.9,77.4,98.5,79.7z"/>
		<path class="st0" d="M107.7,71.1v-0.5c-0.1,0.1-0.2,0.2-0.3,0.3C107.5,70.9,107.6,71,107.7,71.1z"/>
		<path class="st0" d="M45,79.7c2.4,2.4,4.8,4.8,7.1,7.1c2.4-2.4,4.7-4.7,7.1-7.1c-2.4-2.4-4.8-4.8-7.1-7.1
			C49.8,75,47.4,77.3,45,79.7z"/>
		<path class="st0" d="M107.7,88.9v-0.5c-0.1,0.1-0.2,0.2-0.2,0.2C107.6,88.7,107.6,88.8,107.7,88.9z"/>
		<path class="st1" d="M107.7,53.4v-0.7c-0.1,0.1-0.2,0.2-0.3,0.3C107.5,53.2,107.6,53.3,107.7,53.4z"/>
		<path class="st0" d="M86.2,106.7c-2.5-2.5-4.9-4.9-7.4-7.4c-2.4,2.4-4.7,4.7-7.1,7.1c2.5,2.5,4.9,4.9,7.4,7.4
			C81.5,111.5,83.9,109.1,86.2,106.7z"/>
		<path class="st0" d="M77,97.5c-2.4-2.4-4.7-4.7-7.1-7.1c-2.4,2.4-4.7,4.7-7.1,7.1c2.4,2.4,4.7,4.7,7.1,7.1
			C72.3,102.2,74.7,99.9,77,97.5z"/>
		<path class="st0" d="M68.1,106.4c-2.4-2.4-4.7-4.7-7.1-7.1c-2.4,2.4-4.7,4.7-7.1,7.1c2.4,2.4,4.7,4.7,7.1,7.1
			C63.4,111.2,65.8,108.8,68.1,106.4z"/>
		<path class="st0" d="M87.8,72.7c-2.4,2.4-4.7,4.7-7.1,7.1c2.4,2.4,4.7,4.7,7.1,7.1c2.4-2.4,4.7-4.7,7.1-7.1
			C92.5,77.4,90.1,75,87.8,72.7z"/>
		<path class="st0" d="M95.1,97.8c-2.4-2.4-4.9-4.9-7.3-7.3c-2.4,2.4-4.7,4.7-7.1,7.1c2.5,2.5,4.9,4.9,7.4,7.4
			C90.4,102.5,92.8,100.2,95.1,97.8z"/>
		<path class="st0" d="M36.1,88.6c2.4,2.4,4.8,4.8,7.1,7.1c2.4-2.4,4.7-4.7,7.1-7.1c-2.4-2.4-4.8-4.8-7.1-7.1
			C40.8,83.9,38.5,86.3,36.1,88.6z"/>
		<path class="st0" d="M34.3,104.6c2.4-2.4,4.7-4.7,7.1-7.1c-2.4-2.4-4.8-4.8-7.1-7.1c-2.4,2.4-4.7,4.7-7.1,7.1
			C29.6,99.9,32,102.3,34.3,104.6z"/>
		<path class="st0" d="M27.2,79.8c2.4,2.4,4.7,4.7,7.1,7.1c2.4-2.4,4.7-4.7,7.1-7.1c-2.4-2.4-4.7-4.7-7.1-7.1
			C32,75,29.6,77.4,27.2,79.8z"/>
		<path class="st0" d="M59.2,97.5c-2.4-2.4-4.7-4.7-7.1-7.1c-2.4,2.4-4.7,4.7-7.1,7.1c2.4,2.4,4.7,4.7,7.1,7.1
			C54.5,102.2,56.8,99.9,59.2,97.5z"/>
		<path class="st0" d="M50.3,106.4c-2.4-2.4-4.7-4.7-7.1-7.1c-2.4,2.4-4.7,4.7-7.1,7.1c2.4,2.4,4.7,4.7,7.1,7.1
			C45.6,111.1,47.9,108.8,50.3,106.4z"/>
		<path class="st2" d="M102.7,48.4h-3.6c1.5,1.5,3.1,3.1,4.6,4.6c-2.4,2.4-4.7,4.7-7.1,7.1c-2.4-2.4-4.7-4.7-7.1-7.1
			c1.5-1.5,3.1-3.1,4.6-4.6h-3.6c-0.9,0.9-1.9,1.9-2.8,2.8c-0.9-0.9-1.9-1.9-2.8-2.8h-3.7c1.5,1.5,3.1,3.1,4.6,4.6
			c-2.4,2.4-4.7,4.7-7.1,7.1c-2.4-2.4-4.8-4.8-7.1-7.1c1.5-1.5,3-3,4.6-4.6h-3.6c-0.9,0.9-1.9,1.9-2.8,2.8c-0.9-0.9-1.9-1.9-2.8-2.8
			h-3.7c1.5,1.5,3.1,3.1,4.6,4.6c-2.4,2.4-4.7,4.7-7.1,7.1c-2.4-2.4-4.7-4.7-7.1-7.1c1.5-1.5,3.1-3.1,4.6-4.6h-3.7
			c-0.9,0.9-1.9,1.9-2.8,2.8c-0.9-0.9-1.9-1.9-2.8-2.8h-3.6c1.5,1.5,3.1,3.1,4.6,4.6c-2.4,2.4-4.7,4.7-7.1,7.1
			c-2.4-2.4-4.7-4.7-7.1-7.1c1.5-1.5,3.1-3.1,4.6-4.6h-3.7c-0.9,0.9-1.8,1.8-2.8,2.8c-0.9-0.9-1.8-1.8-2.8-2.8h-3.6
			c1.5,1.5,3,3,4.6,4.6c-2.4,2.4-4.7,4.7-7.1,7.1c-2.4-2.4-4.7-4.7-7.1-7.1c1.5-1.5,3.1-3.1,4.6-4.6h-3.7c-0.9,0.9-1.8,1.8-2.7,2.7
			c-0.9-0.9-1.8-1.8-2.7-2.7h-3.6c1.5,1.5,3,3,4.5,4.5c-1.5,1.5-3.1,3.1-4.6,4.6v3.7c2.2-2.2,4.3-4.3,6.5-6.5
			c2.4,2.4,4.7,4.7,7.1,7.1c-2.4,2.4-4.7,4.7-7.1,7.1c-2.2-2.2-4.3-4.3-6.5-6.5v3.6c1.6,1.6,3.1,3.1,4.7,4.7
			c-1.6,1.6-3.1,3.1-4.7,4.7v3.6c2.2-2.2,4.3-4.3,6.5-6.5c2.4,2.4,4.7,4.7,7.1,7.1c-2.4,2.4-4.7,4.7-7.1,7.1
			c-2.2-2.2-4.3-4.3-6.5-6.5V84c1.6,1.6,3.1,3.1,4.7,4.7c-1.6,1.6-3.1,3.1-4.7,4.7v3.7c2.2-2.2,4.3-4.3,6.5-6.5
			c2.4,2.4,4.7,4.7,7.1,7.1c-2.4,2.4-4.7,4.7-7.1,7.1c-2.2-2.2-4.3-4.3-6.5-6.5v3.7c1.6,1.6,3.1,3.1,4.7,4.7
			c-1.6,1.6-3.1,3.1-4.7,4.7v3.6c2.2-2.2,4.3-4.3,6.5-6.5c2.4,2.4,4.8,4.8,7.1,7.1c-2.4,2.4-4.7,4.7-7.1,7.1
			c-2.2-2.2-4.3-4.3-6.5-6.5v3.6c1.6,1.6,3.1,3.1,4.7,4.7c-1.6,1.6-3.1,3.1-4.7,4.7v3.6c2.2-2.2,4.3-4.3,6.5-6.5
			c2.3,2.3,4.5,4.5,6.8,6.8h4.3c2.3-2.2,4.5-4.5,6.8-6.7c2.2,2.2,4.5,4.5,6.7,6.7h4.4c2.2-2.2,4.5-4.5,6.7-6.7
			c2.2,2.2,4.5,4.5,6.7,6.7h4.4c2.2-2.2,4.5-4.5,6.7-6.7c2.2,2.2,4.5,4.5,6.7,6.7H81c2.3-2.2,4.5-4.5,6.8-6.7
			c2.2,2.2,4.5,4.5,6.7,6.7h4.3c2.3-2.3,4.5-4.5,6.8-6.8c0.7,0.7,1.4,1.4,2.1,2.1v-3.7c-0.1-0.1-0.2-0.2-0.3-0.3
			c0.1-0.1,0.2-0.2,0.3-0.3v-3.3c-0.6,0.6-1.3,1.3-1.9,1.9c-2.4-2.4-4.8-4.8-7.2-7.2c2.4-2.3,4.7-4.7,7.1-7c0.7,0.7,1.4,1.4,2.1,2.1
			v-3.7c-0.1-0.1-0.2-0.2-0.2-0.2c0.1-0.1,0.2-0.2,0.2-0.2v-3.5c-0.7,0.7-1.3,1.3-2,2c-2.4-2.4-4.8-4.8-7.2-7.2
			c2.4-2.4,4.7-4.7,7.1-7.1c0.7,0.7,1.4,1.4,2.1,2.1v-3.7c-0.1-0.1-0.2-0.2-0.2-0.2c0.1-0.1,0.2-0.2,0.2-0.2v-3.2
			c-0.6,0.6-1.2,1.2-1.9,1.9c-2.5-2.4-4.9-4.9-7.3-7.3c2.4-2.4,4.7-4.7,7.1-7.1c0.7,0.7,1.4,1.4,2.1,2.1v-3.7
			c-0.1-0.1-0.2-0.2-0.3-0.3c0.1-0.1,0.2-0.2,0.3-0.3v-3.7c-0.7,0.7-1.4,1.4-2.1,2.1c-2.4-2.3-4.7-4.7-7.1-7
			c2.4-2.4,4.7-4.7,7.1-7.1c0.7,0.7,1.4,1.4,2.1,2.1v-3.6c-0.1-0.1-0.2-0.2-0.3-0.3c0.1-0.1,0.2-0.2,0.3-0.3v-3.7
			c-0.7,0.7-1.5,1.5-2.2,2.2C104.6,50.3,103.7,49.4,102.7,48.4z M87.8,54.8c2.4,2.4,4.7,4.7,7.1,7.1c-2.4,2.4-4.7,4.7-7.1,7.1
			c-2.4-2.4-4.7-4.7-7.1-7.1C83,59.6,85.4,57.2,87.8,54.8z M71.4,85.4c-0.5,0.5-1,1-1.4,1.4c-2.4-2.4-4.7-4.7-7.1-7.1
			c1.2-1.2,2.4-2.4,3.6-3.6c1.2-1.2,2.3-2.3,3.5-3.5c2.4,2.4,4.7,4.7,7.1,7.1C75.1,81.6,73.2,83.5,71.4,85.4z M78.9,81.6
			c2.4,2.4,4.7,4.7,7.1,7.1c-1.9,1.9-3.8,3.8-5.7,5.7c-0.5,0.5-0.9,0.9-1.4,1.4c-2.4-2.4-4.7-4.7-7.1-7.1c1.2-1.2,2.4-2.4,3.7-3.7
			C76.6,83.8,77.7,82.7,78.9,81.6z M68.1,88.6c-2.4,2.4-4.7,4.7-7.1,7.1c-2.4-2.4-4.7-4.7-7.1-7.1c2.4-2.4,4.7-4.7,7.1-7.1
			C63.4,83.9,65.8,86.2,68.1,88.6z M52.1,86.8c-2.4-2.4-4.8-4.8-7.1-7.1c2.4-2.4,4.7-4.7,7.1-7.1c2.4,2.4,4.8,4.8,7.1,7.1
			C56.9,82.1,54.5,84.5,52.1,86.8z M50.3,88.6c-2.4,2.4-4.7,4.7-7.1,7.1c-2.4-2.4-4.8-4.8-7.1-7.1c2.4-2.4,4.7-4.7,7.1-7.1
			C45.6,83.9,48,86.3,50.3,88.6z M34.3,86.8c-2.4-2.4-4.7-4.7-7.1-7.1c2.4-2.4,4.7-4.7,7.1-7.1c2.4,2.4,4.7,4.7,7.1,7.1
			C39.1,82.1,36.7,84.5,34.3,86.8z M41.4,97.5c-2.4,2.4-4.7,4.7-7.1,7.1c-2.4-2.4-4.8-4.8-7.1-7.1c2.4-2.4,4.7-4.7,7.1-7.1
			C36.7,92.8,39.1,95.2,41.4,97.5z M43.2,99.3c2.4,2.4,4.7,4.7,7.1,7.1c-2.4,2.4-4.7,4.7-7.1,7.1c-2.4-2.4-4.7-4.7-7.1-7.1
			C38.5,104.1,40.9,101.7,43.2,99.3z M45,97.6c2.4-2.4,4.7-4.7,7.1-7.1c2.4,2.4,4.7,4.7,7.1,7.1c-2.4,2.4-4.7,4.7-7.1,7.1
			C49.7,102.3,47.4,99.9,45,97.6z M61.1,99.4c2.4,2.4,4.7,4.7,7.1,7.1c-2.4,2.4-4.7,4.7-7.1,7.1c-2.4-2.4-4.7-4.7-7.1-7.1
			C56.3,104.1,58.7,101.7,61.1,99.4z M62.9,97.6c2.4-2.4,4.7-4.7,7.1-7.1c2.4,2.4,4.7,4.7,7.1,7.1c-2.4,2.4-4.7,4.7-7.1,7.1
			C67.6,102.3,65.2,99.9,62.9,97.6z M78.9,99.4c2.5,2.5,4.9,4.9,7.4,7.4c-2.4,2.4-4.7,4.7-7.1,7.1c-2.5-2.5-4.9-4.9-7.4-7.4
			C74.1,104.1,76.5,101.7,78.9,99.4z M80.7,97.6c2.4-2.4,4.7-4.7,7.1-7.1c2.4,2.4,4.9,4.9,7.3,7.3c-2.4,2.4-4.7,4.7-7.1,7.1
			C85.6,102.5,83.1,100,80.7,97.6z M87.7,86.8c-2.4-2.4-4.7-4.7-7.1-7.1c2.4-2.4,4.7-4.7,7.1-7.1c2.4,2.4,4.7,4.7,7.1,7.1
			C92.5,82.1,90.1,84.5,87.7,86.8z M85.9,70.8c-2.4,2.4-4.7,4.7-7.1,7.1c-2.4-2.4-4.7-4.7-7.1-7.1c2.4-2.4,4.7-4.7,7.1-7.1
			C81.2,66.1,83.6,68.5,85.9,70.8z M69.9,54.8c2.4,2.4,4.8,4.8,7.1,7.1c-2.4,2.4-4.7,4.7-7.1,7.1c-2.4-2.4-4.8-4.8-7.1-7.1
			C65.2,59.5,67.5,57.2,69.9,54.8z M68.1,70.8c-1.9,1.9-3.8,3.8-5.7,5.7c-0.4,0.4-0.9,0.9-1.3,1.3c-2.4-2.4-4.8-4.8-7.1-7.1
			c2.4-2.4,4.7-4.7,7.1-7.1C63.4,66.1,65.8,68.5,68.1,70.8z M52.1,54.8c2.4,2.4,4.7,4.7,7.1,7.1c-2.4,2.4-4.7,4.7-7.1,7.1
			c-2.4-2.4-4.7-4.7-7.1-7.1C47.4,59.6,49.8,57.2,52.1,54.8z M43.2,63.7c2.4,2.4,4.7,4.7,7.1,7.1c-2.4,2.4-4.7,4.7-7.1,7.1
			c-2.4-2.4-4.7-4.7-7.1-7.1C38.5,68.5,40.9,66.1,43.2,63.7z M34.3,54.8c2.4,2.4,4.7,4.7,7.1,7.1c-2.4,2.4-4.7,4.7-7.1,7.1
			c-2.4-2.4-4.7-4.7-7.1-7.1C29.6,59.6,32,57.2,34.3,54.8z M18.3,70.8c2.4-2.4,4.7-4.7,7.1-7.1c2.4,2.4,4.7,4.7,7.1,7.1
			c-2.4,2.4-4.7,4.7-7.1,7.1C23,75.6,20.7,73.2,18.3,70.8z M18.3,88.6c2.4-2.4,4.7-4.7,7.1-7.1c2.4,2.4,4.7,4.7,7.1,7.1
			c-2.4,2.4-4.7,4.7-7.1,7.1C23.1,93.4,20.7,91,18.3,88.6z M18.3,106.4c2.4-2.4,4.7-4.7,7.1-7.1c2.4,2.4,4.8,4.8,7.1,7.1
			c-2.4,2.4-4.7,4.7-7.1,7.1C23.1,111.2,20.7,108.8,18.3,106.4z M25.4,131.3c-2.4-2.4-4.7-4.7-7.1-7.1c2.4-2.4,4.7-4.7,7.1-7.1
			c2.4,2.4,4.7,4.7,7.1,7.1C30.1,126.6,27.8,129,25.4,131.3z M34.3,122.4c-2.4-2.4-4.7-4.7-7.1-7.1c2.4-2.4,4.7-4.7,7.1-7.1
			c2.4,2.4,4.7,4.7,7.1,7.1C39,117.7,36.7,120,34.3,122.4z M43.2,131.3c-2.4-2.4-4.7-4.7-7.1-7.1c2.4-2.4,4.7-4.7,7.1-7.1
			c2.4,2.4,4.7,4.7,7.1,7.1C47.9,126.6,45.6,129,43.2,131.3z M52.1,122.4c-2.4-2.4-4.7-4.7-7.1-7.1c2.4-2.4,4.7-4.7,7.1-7.1
			c2.4,2.4,4.7,4.7,7.1,7.1C56.9,117.7,54.5,120,52.1,122.4z M61.4,131.7c-2.5-2.5-4.9-4.9-7.4-7.4c2.4-2.4,4.7-4.7,7.1-7.1
			c2.5,2.5,4.9,4.9,7.4,7.4C66.1,126.9,63.7,129.3,61.4,131.7z M62.9,115.4c2.4-2.4,4.7-4.7,7.1-7.1c2.5,2.5,4.9,4.9,7.4,7.4
			c-2.4,2.4-4.7,4.7-7.1,7.1C67.8,120.3,65.3,117.8,62.9,115.4z M79,131.5c-2.4-2.4-4.9-4.8-7.3-7.3c2.4-2.4,4.7-4.7,7.1-7.1
			c2.4,2.4,4.8,4.8,7.2,7.2C83.8,126.8,81.4,129.2,79,131.5z M80.7,115.4c2.4-2.4,4.7-4.7,7.1-7.1c2.4,2.4,4.8,4.8,7.2,7.2
			c-2.4,2.4-4.7,4.7-7.1,7.1C85.5,120.2,83.1,117.8,80.7,115.4z M103.9,124.4c-2.4,2.4-4.7,4.7-7.1,7.1c-2.4-2.4-4.8-4.8-7.2-7.2
			c2.4-2.4,4.7-4.7,7.1-7.1C99.1,119.6,101.5,122,103.9,124.4z M103.9,106.6c-2.4,2.4-4.7,4.7-7,7.1c-2.4-2.4-4.8-4.8-7.2-7.2
			c2.4-2.4,4.7-4.7,7.1-7.1C99.1,101.8,101.5,104.2,103.9,106.6z M104,88.9c-2.4,2.4-4.7,4.7-7.1,7.1c-2.5-2.4-4.9-4.9-7.4-7.3
			c2.4-2.4,4.7-4.7,7.1-7.1C99.1,84,101.6,86.5,104,88.9z M103.7,70.8c-2.4,2.4-4.7,4.7-7.1,7.1c-2.4-2.4-4.7-4.7-7.1-7.1
			c2.4-2.4,4.7-4.7,7.1-7.1C99,66.1,101.4,68.5,103.7,70.8z"/>
	</g>
	<polygon class="st3" points="10,56.4 58.9,66.5 107.7,56.4 107.7,48.4 10,48.4 	"/>
	<polygon class="st2" points="112.9,30.8 4.9,30.8 4.9,48.4 58.9,60 112.9,48.4 	"/>
	<rect x="53.9" y="30.8" class="st4" width="10" height="102.2"/>
	<g>
		<path class="st4" d="M59.7,31c7-1.6,13.9-3.3,20.7-5.4c0.8-0.3,1.7-0.5,2.5-0.8c0.8-0.3,1.5-0.5,2.3-0.9c1.5-0.7,2.9-1.5,4.1-2.4
			c1.1-0.9,2-2.1,2.4-3.1c0.3-1,0.2-1.8-0.3-2.5c-0.5-0.7-1.5-1.3-2.6-1.5c-1.2-0.3-2.6-0.2-3.9,0.1l-1,0.3l-1,0.3l-1,0.4L80.4,16
			l-2.1,1.1c-0.7,0.4-1.4,0.9-2.1,1.3c-5.6,3.7-10.8,8.4-15.5,13.5c-0.7,0.8-3.3-0.8-2.7-1.9c3.7-6.4,8.6-12.1,14.8-16.6
			c0.8-0.6,1.6-1.1,2.4-1.6c0.4-0.3,0.8-0.5,1.2-0.7l0.6-0.4l0.3-0.2l0.2-0.1l0.1,0l0,0l0.1-0.1l1.2-0.6c0.5-0.2,1-0.4,1.5-0.6
			c0.5-0.2,1-0.3,1.5-0.5c0.5-0.1,1-0.3,1.6-0.4c2.1-0.4,4.4-0.5,6.7,0.2c2.3,0.6,4.6,2,6.1,4.3c0.7,1.2,1.1,2.6,1.2,3.9
			c0.1,1.4-0.3,2.7-0.8,3.9c-1.1,2.3-2.8,3.8-4.5,5c-3.5,2.3-7.4,3.1-10.9,3.8c-7.2,1.3-14.3,2.1-21.4,2.9
			C58.6,32.2,58.5,31.3,59.7,31z"/>
	</g>
	<g>
		<path class="st4" d="M57.7,32.1c-9.2-0.6-18.3-1.2-27.5-2.2c-2.3-0.3-4.6-0.5-6.9-0.9c-1.1-0.2-2.4-0.5-3.7-0.7L18.8,28l-0.4-0.1
			l-0.2-0.1l-0.4-0.1c-0.6-0.3-1.2-0.5-1.8-0.8c-1.2-0.6-2.3-1.4-3.4-2.4c-1-1-1.9-2.3-2.5-3.8c-0.6-1.5-0.7-3.1-0.6-4.6
			c0.2-1.5,0.7-3,1.4-4.3c2.9-5.2,8.7-8,14.4-7.7c1.4,0.1,2.8,0.4,4.1,0.8l1.1,0.4l0.5,0.2l0.4,0.2l0.8,0.4L32.6,6l0.2,0.1l0.4,0.2
			c1.1,0.6,2.1,1.2,3.1,1.9c1,0.6,2,1.3,2.9,2c3.8,2.8,7.3,5.9,10.6,9.2c3.3,3.3,6.4,6.7,9.4,10.3c0.9,1.1-1.3,3.3-2.4,2.3
			c-3.4-3-6.9-5.9-10.4-8.7c-3.5-2.8-7.1-5.6-10.7-8.1c-0.9-0.6-1.8-1.2-2.8-1.8c-0.9-0.6-1.9-1.1-2.8-1.6l-0.3-0.2l-0.2-0.1
			c0,0-0.1-0.1,0.1,0l0,0l0,0l-0.1,0l-0.8-0.4l-0.4-0.2L28.1,11l-0.6-0.2c-0.9-0.2-1.7-0.5-2.6-0.5c-0.9-0.1-1.7,0-2.6,0.2
			c-0.9,0.2-1.7,0.4-2.5,0.8c-1.6,0.7-2.9,1.9-3.8,3.3c-0.9,1.4-1.1,2.9-0.8,4.3c0.4,1.4,1.5,2.7,3.1,3.7c0.4,0.3,0.8,0.5,1.3,0.7
			l0.1,0l0,0l0,0c0,0-0.2-0.1-0.1,0l0.2,0.1l0.4,0.2l0.8,0.3c1,0.3,1.9,0.6,3,0.9c2.1,0.6,4.4,1,6.6,1.5c8.9,1.8,18,3.4,27,4.8
			C59.3,31.2,59.2,32.2,57.7,32.1z"/>
	</g>
</g>
</svg>
