<?xml version="1.0" encoding="utf-8"?>
<!-- Generator: Adobe Illustrator 21.1.0, SVG Export Plug-In . SVG Version: 6.00 Build 0)  -->
<svg version="1.1" id="Capa_1" xmlns="http://www.w3.org/2000/svg" xmlns:xlink="http://www.w3.org/1999/xlink" x="0px" y="0px"
	 viewBox="0 0 507.9 507.9" style="enable-background:new 0 0 507.9 507.9;" xml:space="preserve">
<g>
	<g>
		<path d="M463.2,466.2c-29.9-64-34.7-136.2-13.5-203.7c20-63.4-5.7-130.4-58.3-165.8c7.2-5.9,12.8-13.8,15.8-23.3
			c8.1-25.9-6.3-53.6-32.2-61.7c-25.9-8.1-53.6,6.3-61.7,32.2c-3,9.5-2.9,19.2-0.4,28.2c-63.1-1.2-122.2,38.6-142.4,101.5
			c-0.1,0.3-0.2,0.6-0.3,0.9c-21.2,67.4-66.4,123.7-127.7,159.3c-7.1-1.6-14.4,2.4-16.6,9.5c-2.3,7.4,1.8,15.3,9.2,17.7L162.8,401
			c-5.9,41.3,18.7,82.2,59.9,95.2c41.1,12.9,84.7-6.5,103.6-43.7L454,492.6c7.4,2.3,15.3-1.8,17.7-9.2
			C473.7,476.4,470,468.9,463.2,466.2z M366.6,38.6c11.1,3.5,17.2,15.3,13.7,26.3C376.9,76,365.1,82.1,354,78.6
			c-11.1-3.5-17.2-15.3-13.7-26.3C343.8,41.2,355.6,35.1,366.6,38.6z M231.1,469.4c-26.2-8.3-42.6-33.3-40.9-59.6l108.6,34.2
			C285,466.4,257.3,477.6,231.1,469.4z M77.9,344.8c56.3-38.9,98-95.1,118.9-161c0.1-0.3,0.2-0.6,0.3-0.9
			c19.6-62.2,86.2-96.9,148.4-77.3s96.9,86.2,77.3,148.4c-20.9,66.3-19,136.6,5,201L77.9,344.8z"/>
	</g>
</g>
</svg>
